# xmcd
#
# Track frame offsets: 
#        150
#        33878
#        55951
#        71615
#        86531
#        101259
#        113369
#        125550
#        138238
#        149310
#        161865
#        173029
#
# Disc length: 2468 seconds
#
# Revision: 1
# Processed by: cddbd v1.5.2PL0 Copyright (c) Steve Scherf et al.
# Submitted via: ExactAudioCopy v0.99pb3
#
DISCID=9b09a20c
DTITLE=Ray Charles - Songbook Collection [Ray Charles], Vol. 1
DYEAR=2006
DGENRE=R&B
TTITLE0=Georgia On My Mind (Live)
TTITLE1=What'd I Say (Live)
TTITLE2=Your Are My Sunshine (Live)
TTITLE3=Hallelujah, I Love Her So (Live)
TTITLE4=Eleanor Rigby (Live)
TTITLE5=Mess Around
TTITLE6=C.C. Rider
TTITLE7=Heartbreaker
TTITLE8=I Wonder Who's Kissing Her Now
TTITLE9=You Always Miss The Water (When The Well Runs Dry)
TTITLE10=Let's Have A Ball
TTITLE11=Going Down Slow
EXTD=
EXTT0=
EXTT1=
EXTT2=
EXTT3=
EXTT4=
EXTT5=
EXTT6=
EXTT7=
EXTT8=
EXTT9=
EXTT10=
EXTT11=
PLAYORDER=
